<?xml version="1.0" standalone="no"?>
<!DOCTYPE svg PUBLIC "-//W3C//DTD SVG 20010904//EN"
 "http://www.w3.org/TR/2001/REC-SVG-20010904/DTD/svg10.dtd">
<svg version="1.0" xmlns="http://www.w3.org/2000/svg"
 width="512.000000pt" height="512.000000pt" viewBox="0 0 512.000000 512.000000"
 preserveAspectRatio="xMidYMid meet">

<g transform="translate(0.000000,512.000000) scale(0.100000,-0.100000)"
fill="#f96302" stroke="none">
<path d="M4089 4787 c-33 -25 -39 -55 -39 -196 l0 -141 -82 0 c-92 0 -149 -21
-183 -68 -20 -27 -20 -45 -23 -1052 -2 -1009 -2 -1026 18 -1058 35 -56 73 -72
177 -72 l92 0 3 -156 c3 -150 4 -157 27 -175 31 -26 83 -25 107 2 16 18 20 42
24 173 l5 151 95 5 c106 6 127 14 167 67 l28 36 3 1001 c3 1117 6 1059 -66
1114 -32 24 -45 27 -134 30 l-98 4 0 149 c0 146 -1 151 -25 174 -26 27 -70 32
-96 12z"/>
<path d="M2004 4256 c-17 -8 -34 -21 -38 -31 -3 -9 -6 -81 -6 -160 l0 -143
-93 -4 c-112 -5 -154 -26 -186 -92 -21 -42 -21 -51 -21 -1037 l0 -995 23 -44
c32 -65 86 -90 194 -90 l83 0 0 -149 c0 -130 2 -152 19 -172 25 -31 83 -32
114 -1 20 21 22 33 25 171 l3 149 94 4 c83 3 96 7 130 32 69 53 66 -12 63
1109 l-3 1012 -23 33 c-35 49 -75 65 -174 70 l-87 4 -3 149 c-3 133 -5 151
-23 168 -28 27 -55 32 -91 17z"/>
<path d="M3033 3686 l-28 -24 -3 -150 -3 -150 -94 -4 c-101 -3 -126 -14 -169
-72 -21 -27 -21 -33 -21 -1054 l0 -1027 23 -33 c35 -49 75 -65 175 -70 l87 -4
0 -135 c0 -173 13 -203 91 -203 16 0 38 9 49 20 18 18 20 33 20 169 l0 149 93
4 c112 5 154 26 186 92 21 42 21 51 21 1037 l0 995 -22 44 c-35 68 -81 90
-190 90 l-88 0 0 150 c0 147 -1 152 -25 175 -31 32 -66 32 -102 1z"/>
<path d="M932 3247 c-20 -21 -22 -35 -24 -172 l-3 -150 -95 -5 c-106 -6 -127
-14 -167 -67 l-28 -36 -3 -1001 c-3 -1117 -6 -1059 66 -1114 32 -24 45 -27
134 -30 l98 -4 0 -148 c0 -165 7 -184 67 -196 27 -5 37 -1 63 24 l30 30 0 146
0 146 82 0 c92 0 149 21 183 68 20 27 20 45 23 1052 2 1009 2 1026 -18 1058
-35 57 -73 72 -177 72 l-93 0 0 150 c0 147 -1 152 -25 175 -32 33 -83 34 -113
2z"/>
</g>
</svg>
